# xmcd
#
# Track frame offsets:
#	183
#	19113
#	39698
#
# Disc length: 777 seconds
#
# Revision: 1
# Processed by: cddbd v1.5.1PL0 Copyright (c) Steve Scherf et al.
# Submitted via: EasyCDDAExtractor 8.0.2.1
#
DISCID=1d030703
DTITLE=Ebony (feat Phoebe 1) - If I Change My Mind [CD Single)
DYEAR=1996
DGENRE=R&B
TTITLE0=If I Change My Mind (Radio Mix)
TTITLE1=If I Change My Mind (Extended Rap Mix)
TTITLE2=If I Change My Mind (Instrumental)
EXTD=YEAR: 2000
EXTT0=
EXTT1=
EXTT2=
PLAYORDER=
